<svg xmlns="http://www.w3.org/2000/svg" width="800" height="600" viewBox="0 0 800 600">
  <defs>
    <pattern id="mosaicPattern" patternUnits="userSpaceOnUse" width="100" height="100">
      <rect width="100" height="100" fill="#e5e5e0" />
      <rect width="18" height="18" x="2" y="2" fill="#9CAF88" rx="2" />
      <rect width="18" height="18" x="22" y="2" fill="#cc6666" rx="2" />
      <rect width="18" height="18" x="42" y="2" fill="#964B00" rx="2" />
      <rect width="18" height="18" x="62" y="2" fill="#9CAF88" rx="2" />
      <rect width="18" height="18" x="82" y="2" fill="#cc6666" rx="2" />
      
      <rect width="18" height="18" x="2" y="22" fill="#964B00" rx="2" />
      <rect width="18" height="18" x="22" y="22" fill="#9CAF88" rx="2" />
      <rect width="18" height="18" x="42" y="22" fill="#cc6666" rx="2" />
      <rect width="18" height="18" x="62" y="22" fill="#964B00" rx="2" />
      <rect width="18" height="18" x="82" y="22" fill="#9CAF88" rx="2" />
      
      <rect width="18" height="18" x="2" y="42" fill="#cc6666" rx="2" />
      <rect width="18" height="18" x="22" y="42" fill="#964B00" rx="2" />
      <rect width="18" height="18" x="42" y="42" fill="#9CAF88" rx="2" />
      <rect width="18" height="18" x="62" y="42" fill="#cc6666" rx="2" />
      <rect width="18" height="18" x="82" y="42" fill="#964B00" rx="2" />
      
      <rect width="18" height="18" x="2" y="62" fill="#9CAF88" rx="2" />
      <rect width="18" height="18" x="22" y="62" fill="#cc6666" rx="2" />
      <rect width="18" height="18" x="42" y="62" fill="#964B00" rx="2" />
      <rect width="18" height="18" x="62" y="62" fill="#9CAF88" rx="2" />
      <rect width="18" height="18" x="82" y="62" fill="#cc6666" rx="2" />
      
      <rect width="18" height="18" x="2" y="82" fill="#964B00" rx="2" />
      <rect width="18" height="18" x="22" y="82" fill="#9CAF88" rx="2" />
      <rect width="18" height="18" x="42" y="82" fill="#cc6666" rx="2" />
      <rect width="18" height="18" x="62" y="82" fill="#964B00" rx="2" />
      <rect width="18" height="18" x="82" y="82" fill="#9CAF88" rx="2" />
    </pattern>
  </defs>
  <rect width="800" height="600" fill="url(#mosaicPattern)" />
  <rect width="800" height="120" y="480" fill="#9CAF88" opacity="0.7" />
  <text x="400" y="540" font-family="Arial" font-size="36" text-anchor="middle" fill="#fff" font-weight="bold">עבודות פסיפס מותאמות אישית</text>
  <text x="400" y="580" font-family="Arial" font-size="24" text-anchor="middle" fill="#fff">Custom Mosaic Work</text>
</svg> 